Coordinates
version=1
nRows=31
nColumns=38
inDegrees=no

Units are S.I. units (second, meters, Newtons, ...)
If the header above contains a line with 'inDegrees', this indicates whether rotational values are in degrees (yes) or radians (no).

endheader
time	pelvis_tilt	pelvis_list	pelvis_rotation	pelvis_tx	pelvis_ty	pelvis_tz	hip_flexion_r	hip_adduction_r	hip_rotation_r	knee_angle_r	ankle_angle_r	subtalar_angle_r	mtp_angle_r	hip_flexion_l	hip_adduction_l	hip_rotation_l	knee_angle_l	ankle_angle_l	subtalar_angle_l	mtp_angle_l	lumbar_extension	lumbar_bending	lumbar_rotation	arm_flex_r	arm_add_r	arm_rot_r	elbow_flex_r	pro_sup_r	wrist_flex_r	wrist_dev_r	arm_flex_l	arm_add_l	arm_rot_l	elbow_flex_l	pro_sup_l	wrist_flex_l	wrist_dev_l
0	-3.10128	1.10873	1.58455	0.677641	1.49112	1.02001	0.587754	0.0162081	-0.0519227	0.24462	-0.0993655	0	0	0.669829	-0.103508	-0.0654793	1.1005	-0.234368	0	0	0.43983	0.0619642	0.0239634	-0.236819	-0.354629	0.25558	0.503632	0.958992	0	0	-0.248877	-0.120228	-0.653945	0.271933	1.17573	0	0
0.01	-3.11118	1.10759	1.59561	0.676456	1.48097	1.02112	0.571401	0.0146962	-0.0529987	0.229338	-0.0989632	0	0	0.691767	-0.0992621	-0.0986316	1.0946	-0.230172	0	0	0.4438	0.0565324	0.0276112	-0.237473	-0.357913	0.247959	0.512934	0.958346	0	0	-0.252062	-0.119091	-0.664228	0.277705	1.19078	0	0
0.02	-3.12025	1.10607	1.60483	0.674818	1.47083	1.02203	0.558106	0.0128325	-0.0571094	0.221142	-0.0979794	0	0	0.70836	-0.0925143	-0.0973368	1.0798	-0.223879	0	0	0.447778	0.0512977	0.0319516	-0.238079	-0.359794	0.23832	0.52247	0.959766	0	0	-0.255856	-0.118194	-0.673961	0.285675	1.20331	0	0
0.03	-3.13108	1.1059	1.61461	0.67314	1.46057	1.02298	0.543575	0.0107917	-0.0619188	0.213121	-0.0971239	0	0	0.721496	-0.0862506	-0.098448	1.06066	-0.217135	0	0	0.449835	0.0455275	0.0377227	-0.238229	-0.360875	0.227568	0.531278	0.962392	0	0	-0.25924	-0.117298	-0.682255	0.294375	1.214	0	0
0.04	3.14143	1.10589	1.62401	0.671514	1.45039	1.0238	0.529375	0.00887762	-0.0667653	0.205724	-0.0963789	0	0	0.73331	-0.0805944	-0.100127	1.03757	-0.20968	0	0	0.45096	0.0398092	0.0436436	-0.238103	-0.361811	0.216276	0.540477	0.966201	0	0	-0.261722	-0.116392	-0.688251	0.302918	1.22399	0	0
0.05	3.13453	1.10498	1.62955	0.669672	1.4404	1.02429	0.516528	0.00919655	-0.0700985	0.198682	-0.0953333	0	0	0.743677	-0.0777031	-0.086419	1.01223	-0.196699	0	0	0.452231	0.0356206	0.0488164	-0.238183	-0.362803	0.204056	0.551637	0.970224	0	0	-0.264103	-0.115301	-0.692911	0.312732	1.23258	0	0
0.06	3.12395	1.1055	1.63851	0.668177	1.43026	1.02493	0.50211	0.00707483	-0.0739412	0.192183	-0.0936397	0	0	0.752987	-0.0731049	-0.0918752	0.981662	-0.187277	0	0	0.451991	0.0299465	0.055524	-0.238114	-0.363388	0.191883	0.561272	0.974038	0	0	-0.264843	-0.114647	-0.694844	0.320843	1.24098	0	0
0.07	3.11348	1.10637	1.64709	0.666754	1.42015	1.02548	0.487745	0.00478311	-0.0778032	0.187063	-0.091229	0	0	0.760778	-0.0687393	-0.0979276	0.947323	-0.179652	0	0	0.451087	0.0243974	0.0627289	-0.237506	-0.363774	0.180397	0.570069	0.977845	0	0	-0.26442	-0.114195	-0.695009	0.328111	1.2484	0	0
0.08	3.10293	1.1073	1.65546	0.665359	1.41007	1.02592	0.473585	0.00274981	-0.081492	0.183071	-0.0883528	0	0	0.76726	-0.0644564	-0.104109	0.909141	-0.174349	0	0	0.449623	0.0189559	0.0698979	-0.236571	-0.364307	0.169622	0.579169	0.981446	0	0	-0.263052	-0.113737	-0.694707	0.334624	1.25433	0	0
0.09	3.09265	1.10785	1.66346	0.664013	1.40003	1.02622	0.459746	0.000878341	-0.0840466	0.178992	-0.0857995	0	0	0.772866	-0.0601085	-0.109958	0.866875	-0.171516	0	0	0.448172	0.0136976	0.0764468	-0.235106	-0.365482	0.161932	0.588558	0.98512	0	0	-0.261087	-0.113156	-0.693795	0.340303	1.25846	0	0
0.1	3.08258	1.10877	1.67111	0.662702	1.38997	1.02645	0.445376	-0.000824192	-0.0856155	0.17449	-0.0833928	0	0	0.776788	-0.0557376	-0.116274	0.821114	-0.170542	0	0	0.446031	0.00869948	0.0828805	-0.233322	-0.366644	0.154553	0.597863	0.989025	0	0	-0.25836	-0.112777	-0.691604	0.345061	1.26244	0	0
0.11	3.07322	1.11037	1.67776	0.661388	1.37986	1.0266	0.430254	-0.00199749	-0.0865219	0.169764	-0.0810795	0	0	0.778846	-0.0517666	-0.123897	0.77256	-0.172489	0	0	0.442915	0.00424884	0.089241	-0.231137	-0.367828	0.147703	0.60701	0.993133	0	0	-0.254911	-0.112378	-0.68919	0.349207	1.26552	0	0
0.12	3.06389	1.11249	1.68364	0.660113	1.36973	1.02665	0.414887	-0.00298166	-0.0869067	0.165398	-0.0786928	0	0	0.779334	-0.0484603	-0.134173	0.720213	-0.178961	0	0	0.438975	0.000300214	0.0959858	-0.228436	-0.369296	0.142164	0.615757	0.99792	0	0	-0.250937	-0.111645	-0.687006	0.353092	1.26764	0	0
0.13	3.05387	1.11556	1.68914	0.658875	1.35956	1.02669	0.398646	-0.0039984	-0.086371	0.161302	-0.0763582	0	0	0.777139	-0.0456706	-0.148037	0.664261	-0.189513	0	0	0.433686	-0.00328028	0.103674	-0.225206	-0.370591	0.136301	0.623695	1.00326	0	0	-0.24625	-0.110777	-0.684466	0.356448	1.26964	0	0
0.14	3.04561	1.11765	1.6935	0.657837	1.34922	1.02654	0.383275	-0.00491476	-0.0872881	0.157402	-0.0746306	0	0	0.77454	-0.0424682	-0.162676	0.604937	-0.202406	0	0	0.430257	-0.00613192	0.109984	-0.222277	-0.372446	0.132658	0.631215	1.00863	0	0	-0.242555	-0.109604	-0.681816	0.359437	1.27196	0	0
0.15	3.03992	1.11993	1.69597	0.656742	1.33889	1.02623	0.367842	-0.00481169	-0.0885789	0.153486	-0.0723266	0	0	0.770924	-0.0394898	-0.177148	0.543118	-0.219482	0	0	0.426289	-0.00818355	0.114409	-0.218645	-0.374603	0.130929	0.639064	1.01426	0	0	-0.2395	-0.108268	-0.678915	0.363272	1.27462	0	0
0.16	3.03383	1.12048	1.69736	0.655735	1.32851	1.02566	0.354655	-0.00510279	-0.0878681	0.150637	-0.069349	0	0	0.767274	-0.0361862	-0.193174	0.477834	-0.241258	0	0	0.424745	-0.00972042	0.119657	-0.215184	-0.377073	0.13024	0.646347	1.01929	0	0	-0.237713	-0.106532	-0.676011	0.367236	1.27757	0	0
0.17	3.02982	1.11997	1.69627	0.654716	1.31821	1.0248	0.343155	-0.00466568	-0.0857102	0.148515	-0.0661752	0	0	0.764126	-0.0329834	-0.207163	0.410793	-0.266547	0	0	0.424233	-0.0102877	0.124406	-0.211622	-0.380016	0.130893	0.654068	1.02419	0	0	-0.23685	-0.104332	-0.673516	0.372158	1.28022	0	0
0.18	3.02832	1.1192	1.69254	0.65368	1.30788	1.02367	0.332396	-0.00304707	-0.0839393	0.147171	-0.0626821	0	0	0.76066	-0.0298681	-0.214921	0.342618	-0.293236	0	0	0.423956	-0.00972365	0.128199	-0.208036	-0.383453	0.132372	0.662526	1.02874	0	0	-0.237134	-0.10164	-0.671612	0.378332	1.28276	0	0
0.19	3.02919	1.1178	1.68641	0.652666	1.29749	1.02225	0.32249	-0.000500031	-0.0827207	0.146052	-0.0592996	0	0	0.756753	-0.0273596	-0.216654	0.27265	-0.320536	0	0	0.424603	-0.00802096	0.130743	-0.204272	-0.38731	0.135317	0.671214	1.03338	0	0	-0.238843	-0.0985511	-0.670097	0.385207	1.28601	0	0
0.2	3.0324	1.1155	1.67801	0.651639	1.28703	1.02061	0.31362	0.00287902	-0.0820268	0.145073	-0.0561786	0	0	0.753606	-0.0256762	-0.21429	0.204002	-0.346932	0	0	0.426504	-0.00529788	0.132096	-0.200251	-0.39135	0.139658	0.679603	1.03875	0	0	-0.241567	-0.0952261	-0.669692	0.392013	1.28989	0	0
0.21	3.03793	1.11301	1.66713	0.650615	1.27645	1.01876	0.305284	0.00713809	-0.0828637	0.14522	-0.052926	0	0	0.750249	-0.0250143	-0.209627	0.136983	-0.369	0	0	0.428866	-0.00124607	0.132683	-0.19596	-0.395471	0.144258	0.687532	1.04373	0	0	-0.244942	-0.0916335	-0.670121	0.398591	1.29455	0	0
0.22	3.04764	1.09018	1.6581	0.649972	1.26724	1.01559	0.320974	0.00955053	-0.0792501	0.149576	-0.0490119	0	0	0.799796	-0.0193638	-0.171514	0.0838856	-0.410933	0	0	0.454705	-7.84038e-05	0.127476	-0.193297	-0.397396	0.149518	0.692679	1.05007	0	0	-0.251618	-0.0890201	-0.673305	0.405037	1.30051	0	0
0.23	3.05413	1.10361	1.63917	0.648627	1.25499	1.01417	0.293939	0.0175079	-0.0837593	0.147877	-0.0458746	0	0	0.7486	-0.0273459	-0.194693	0.014075	-0.403243	0	0	0.439683	0.00968953	0.132941	-0.189612	-0.404226	0.154466	0.704117	1.05318	0	0	-0.254926	-0.0833498	-0.674745	0.413931	1.30449	0	0
0.24	3.06264	1.10237	1.62534	0.64782	1.24415	1.012	0.284546	0.0226758	-0.0852364	0.149083	-0.0437129	0	0	0.749241	-0.030245	-0.194571	0	-0.40452	0	0	0.439829	0.0154963	0.132474	-0.185275	-0.408279	0.157654	0.711665	1.05473	0	0	-0.257574	-0.0795366	-0.675033	0.420104	1.30712	0	0
0.25	3.07043	1.09708	1.6124	0.647122	1.23317	1.00948	0.280398	0.0268898	-0.0868314	0.153323	-0.0392149	0	0	0.756012	-0.0326635	-0.195867	0	-0.404946	0	0	0.445183	0.0207994	0.131094	-0.181489	-0.412475	0.163404	0.718218	1.05609	0	0	-0.262478	-0.0754349	-0.676647	0.428033	1.31026	0	0
0.26	3.07612	1.09102	1.60159	0.64648	1.22201	1.00696	0.277661	0.0299064	-0.0884265	0.159246	-0.0351773	0	0	0.764116	-0.0340323	-0.197535	0	-0.401058	0	0	0.451848	0.0250722	0.130091	-0.177588	-0.415795	0.169734	0.722304	1.05639	0	0	-0.267359	-0.0723743	-0.676416	0.435032	1.31273	0	0
0.27	3.07928	1.08645	1.59321	0.645766	1.21073	1.00464	0.274128	0.0317999	-0.0898973	0.166919	-0.0315154	0	0	0.770732	-0.0344815	-0.199569	0	-0.394233	0	0	0.456391	0.0278545	0.130013	-0.173135	-0.417655	0.175275	0.724319	1.05645	0	0	-0.271164	-0.0706829	-0.672671	0.441522	1.3128	0	0
0.28	3.08018	1.08352	1.58692	0.644959	1.19933	1.00255	0.269613	0.0326067	-0.0903091	0.176229	-0.0278917	0	0	0.775678	-0.0342719	-0.201679	0	-0.38595	0	0	0.458632	0.0292112	0.131263	-0.168255	-0.417781	0.178542	0.724144	1.05482	0	0	-0.27321	-0.0697884	-0.667614	0.447433	1.30879	0	0
0.29	3.07953	1.08219	1.58297	0.644442	1.18767	1.00075	0.264078	0.0318407	-0.092181	0.187451	-0.0251414	0	0	0.779491	-0.0323527	-0.204589	0	-0.378407	0	0	0.459199	0.0295159	0.133329	-0.164503	-0.417247	0.179255	0.722879	1.0515	0	0	-0.273242	-0.0692157	-0.66202	0.451228	1.30369	0	0
0.3	3.07712	1.0821	1.5816	0.644104	1.17576	0.999249	0.258025	0.0296535	-0.0952685	0.200764	-0.0230366	0	0	0.782853	-0.0289539	-0.208212	0	-0.374338	0	0	0.458354	0.0285408	0.135572	-0.161292	-0.416064	0.179175	0.720289	1.04819	0	0	-0.271682	-0.0689551	-0.657218	0.452826	1.29934	0	0
